<svg xmlns="http://www.w3.org/2000/svg" width="512" height="512" viewBox="0 0 512 512" version="1.1"><path d="" stroke="none" fill="#080404" fill-rule="evenodd"/><path d="M 231.500 1.499 C 220.174 3.492, 206.976 7.475, 196.500 12.060 C 167.695 24.666, 139.648 51.919, 132.094 74.642 C 128.243 86.224, 127.807 93.193, 128.269 135.808 C 128.663 172.205, 128.925 177.450, 130.754 185.500 C 138.475 219.473, 158.147 248.351, 185.750 266.230 L 192 270.278 192 289.120 C 192 307.834, 191.985 307.966, 189.750 308.499 C 188.512 308.794, 167.475 313.485, 143 318.924 C 118.525 324.362, 95.361 329.997, 91.524 331.446 C 70.110 339.533, 51.546 355.761, 40.700 375.876 C 35.687 385.174, -0.002 491.800, 0.004 497.464 C 0.016 511.180, 18.312 517.318, 26.845 506.470 C 27.957 505.056, 36.828 479.960, 46.558 450.700 C 56.289 421.440, 65.855 394.350, 67.818 390.500 C 72.663 380.995, 84.873 368.843, 94.784 363.663 C 101.030 360.398, 111.464 357.208, 124.750 354.503 L 128 353.841 128 386.847 L 128 419.853 122.731 422.266 C 115.551 425.553, 106.015 434.618, 102.193 441.789 C 96.011 453.387, 94.610 464.733, 97.833 477.081 C 101.380 490.668, 110.521 501.435, 124 507.902 C 131.325 511.416, 131.779 511.500, 143.500 511.500 C 155.292 511.500, 155.636 511.435, 163.308 507.772 C 193.984 493.124, 200.391 453.846, 175.913 430.498 C 172.695 427.429, 167.573 423.778, 164.531 422.386 L 159 419.853 159 383.465 L 159 347.077 162.750 346.112 C 164.813 345.581, 174.087 343.480, 183.360 341.443 C 197.343 338.370, 200.370 337.973, 201.098 339.119 C 201.582 339.879, 211.507 356.385, 223.156 375.801 C 237.386 399.520, 245.346 411.824, 247.417 413.301 C 249.695 414.926, 251.935 415.500, 256 415.500 C 260.065 415.500, 262.305 414.926, 264.583 413.301 C 266.654 411.824, 274.614 399.520, 288.844 375.801 C 300.493 356.385, 310.418 339.879, 310.902 339.119 C 311.630 337.973, 314.657 338.370, 328.640 341.443 C 337.913 343.480, 347.197 345.584, 349.271 346.118 L 353.041 347.088 352.771 367.121 L 352.500 387.155 347.258 389 C 334.098 393.633, 318.483 406.864, 312.225 418.686 C 305.822 430.783, 305 436.671, 305.002 470.410 C 305.003 504.008, 305.225 505.272, 311.898 509.730 C 314.970 511.782, 316.473 512, 327.583 512 C 334.341 512, 340.912 511.603, 342.185 511.118 C 345.828 509.729, 349.895 505.081, 351.159 500.863 C 353.497 493.059, 347.668 483.610, 339.733 482.341 L 335.892 481.727 336.196 460.614 C 336.480 440.906, 336.654 439.187, 338.812 434.807 C 342.027 428.278, 348.170 422.280, 354.845 419.152 C 362.877 415.388, 374.121 415.372, 382 419.114 C 388.620 422.258, 394.265 427.737, 397.850 434.500 C 400.440 439.386, 400.507 439.983, 400.821 460.750 L 401.142 482 398.806 482 C 394.696 482, 389.663 485.497, 387.275 490.013 C 384.408 495.433, 384.408 498.567, 387.275 503.987 C 390.878 510.801, 394.143 512, 409.087 512 C 420.528 512, 422.011 511.790, 425.001 509.750 C 431.774 505.127, 432.002 503.878, 431.983 471.516 C 431.963 438.080, 431.266 433.024, 424.900 420.111 C 417.989 406.090, 404.577 394.222, 389.745 389.001 L 384.500 387.155 384.225 370.493 L 383.951 353.830 387.225 354.497 C 400.506 357.203, 410.977 360.400, 417.216 363.653 C 426.527 368.507, 439.158 380.901, 443.832 389.767 C 445.649 393.214, 455.193 420.162, 465.042 449.653 C 474.890 479.144, 483.659 504.358, 484.529 505.684 C 488.531 511.792, 498.357 513.909, 504.715 510.033 C 509.501 507.114, 513 500.961, 513 495.461 C 513 492.942, 512.651 491.098, 512.225 491.361 C 511.799 491.624, 503.225 467.186, 493.172 437.053 C 479.215 395.218, 473.857 380.445, 470.507 374.568 C 459.019 354.408, 441.657 339.445, 420.476 331.446 C 416.639 329.997, 393.475 324.362, 369 318.924 C 344.525 313.485, 323.488 308.794, 322.250 308.499 C 320.015 307.966, 320 307.834, 320 289.120 L 320 270.278 326.250 266.230 C 354.383 248.007, 374.337 218.190, 381.612 183.500 C 383.296 175.474, 383.500 169.791, 383.500 131 C 383.500 84.528, 383.349 82.777, 378.276 70.552 C 371.010 53.041, 352.240 33.221, 330.325 19.918 C 316.882 11.759, 303.826 6.553, 287.500 2.843 C 275.651 0.151, 243.537 -0.620, 231.500 1.499 M 243 31.105 C 218.607 33.771, 196.625 43.868, 179.212 60.405 C 162.188 76.572, 159 83.976, 159 107.340 L 159 122.470 171.250 110.285 C 183.240 98.358, 186.601 96, 191.606 96 C 192.967 96, 198.904 97.988, 204.798 100.417 C 239.412 114.683, 274.575 114.551, 308.056 100.029 C 323.022 93.538, 324.324 93.946, 340.750 110.285 L 353 122.470 353 107.340 C 353 94.995, 352.629 91.009, 350.984 85.683 C 345.812 68.939, 321.431 47.119, 297.578 37.886 C 282.042 31.873, 260.485 29.194, 243 31.105 M 184.257 140.087 C 175.894 148.282, 172.609 150.773, 166.362 153.659 L 158.711 157.194 159.322 166.347 C 162.200 209.456, 193.252 244.990, 236.500 254.666 C 251.204 257.955, 272.859 256.445, 288.419 251.046 C 324.089 238.667, 350.142 204.326, 352.678 166.347 L 353.289 157.194 345.653 153.666 C 339.450 150.800, 336.069 148.243, 327.648 140.050 L 317.279 129.962 306.890 133.412 C 273.288 144.572, 238.733 144.578, 205.167 133.431 C 199.484 131.544, 194.759 130.011, 194.667 130.025 C 194.575 130.038, 189.891 134.566, 184.257 140.087 M 223 299.237 L 223 315.688 239.250 342.823 C 248.188 357.747, 255.726 369.967, 256.002 369.979 C 256.277 369.990, 263.815 357.816, 272.752 342.924 L 289 315.847 289 299.317 C 289 284.467, 288.835 282.849, 287.375 283.410 C 275.547 287.949, 236.453 287.949, 224.625 283.410 C 223.165 282.850, 223 284.460, 223 299.237 M 135.966 450.250 C 128.299 454.120, 124.635 464.572, 128.411 471.800 C 137.038 488.314, 161.316 481.888, 159.791 463.495 C 159.256 457.040, 156.128 452.417, 150.599 449.905 C 145.167 447.439, 141.358 447.528, 135.966 450.250 M 0.300 497 C 0.300 500.025, 0.487 501.262, 0.716 499.750 C 0.945 498.238, 0.945 495.762, 0.716 494.250 C 0.487 492.738, 0.300 493.975, 0.300 497" stroke="none" fill="#040404" fill-rule="evenodd"/></svg>