<svg xmlns="http://www.w3.org/2000/svg" width="512" height="512" viewBox="0 0 512 512" version="1.1"><path d="" stroke="none" fill="#080404" fill-rule="evenodd"/><path d="M 232 1.425 C 199.315 7.232, 173.126 20.359, 150.191 42.428 C 130.531 61.346, 118.394 80.510, 109.994 105.895 C 104.405 122.788, 102.625 134.399, 102.621 154 C 102.616 173.113, 104.206 183.245, 109.997 201.021 C 127.965 256.179, 176.120 296.957, 233.317 305.450 C 314.772 317.545, 391.099 263.224, 407.161 181.728 C 408.900 172.905, 409.375 166.966, 409.378 154 C 409.384 134.408, 407.610 122.831, 402.006 105.895 C 394.159 82.182, 382.832 63.534, 365.717 46.156 C 343.516 23.614, 318.556 9.762, 287.694 2.856 C 275.866 0.209, 243.519 -0.622, 232 1.425 M 243.842 15.022 C 181.779 20.742, 131.623 66.140, 119.320 127.730 C 118.039 134.143, 117.579 141.204, 117.606 154 C 117.645 172.267, 118.748 180.310, 123.114 194.141 L 125.257 200.931 129.744 195.940 C 132.212 193.195, 136.317 189.755, 138.866 188.296 C 141.415 186.838, 143.616 185.570, 143.758 185.480 C 143.901 185.390, 142.490 182.387, 140.624 178.807 C 130.504 159.391, 139.917 136.450, 160.634 130.040 C 165.184 128.633, 166.526 127.592, 169.947 122.814 C 173.577 117.744, 183.230 110, 185.919 110 C 187.466 110, 187.330 109.590, 184.085 104.473 C 173.146 87.225, 180.518 64.144, 199.825 55.189 C 207.882 51.452, 219.096 51.441, 227.120 55.163 C 235.003 58.820, 240.438 64.114, 244.240 71.837 C 247.101 77.647, 247.500 79.443, 247.500 86.500 C 247.500 93.695, 247.131 95.277, 244 101.521 C 242.075 105.359, 240.379 108.750, 240.231 109.056 C 240.084 109.362, 241.551 110.369, 243.491 111.294 C 245.432 112.220, 249.040 114.840, 251.510 117.116 L 256 121.255 260.490 117.116 C 262.960 114.840, 266.568 112.220, 268.509 111.294 C 270.449 110.369, 271.916 109.362, 271.769 109.056 C 271.621 108.750, 269.925 105.359, 268 101.521 C 264.858 95.256, 264.503 93.722, 264.528 86.521 C 264.551 80.020, 265.050 77.435, 267.163 72.880 C 270.820 64.997, 276.114 59.562, 283.837 55.760 C 289.669 52.889, 291.414 52.503, 298.479 52.528 C 308.018 52.562, 315.213 55.390, 322.243 61.870 C 333.753 72.479, 336.260 91.314, 327.915 104.473 C 324.670 109.590, 324.534 110, 326.081 110 C 328.770 110, 338.423 117.744, 342.053 122.814 C 345.474 127.592, 346.816 128.633, 351.366 130.040 C 362.850 133.593, 371.363 142.595, 374.500 154.500 C 376.691 162.816, 375.703 170.506, 371.376 178.807 C 369.510 182.387, 368.099 185.390, 368.242 185.480 C 368.384 185.570, 370.585 186.838, 373.134 188.296 C 375.683 189.755, 379.782 193.188, 382.242 195.924 L 386.715 200.900 389.333 192.200 C 393.499 178.354, 394.501 170.683, 394.454 153 C 394.390 128.932, 390.477 111.865, 380.438 91.876 C 354.565 40.360, 300.285 9.820, 243.842 15.022 M 206.007 68.532 C 196.081 73.010, 191.263 84.686, 195.381 94.282 C 197.063 98.204, 202.497 103.499, 206.315 104.939 C 210.705 106.594, 217.702 106.193, 221.914 104.044 C 239.585 95.029, 234.593 69.115, 214.859 67.417 C 211.255 67.107, 208.356 67.472, 206.007 68.532 M 289.907 69.327 C 278.673 75.258, 275.697 89.544, 283.712 99.069 C 292.071 109.003, 307.596 108.100, 315.033 97.247 C 318.365 92.384, 318.906 83.690, 316.205 78.421 C 310.911 68.096, 299.629 64.194, 289.907 69.327 M 194.703 122.442 C 190.358 123.992, 183 128.637, 183 129.829 C 183 130.269, 184.579 131.383, 186.510 132.303 C 203.578 140.443, 210.178 164.289, 199.864 180.554 C 198.232 183.126, 197.033 185.349, 197.199 185.493 C 197.364 185.636, 199.364 186.694, 201.642 187.842 C 203.920 188.991, 207.461 191.512, 209.511 193.445 L 213.238 196.961 217.669 193.060 C 220.107 190.914, 223.854 188.292, 225.996 187.232 L 229.892 185.305 227.561 181.875 C 221.786 173.377, 220.343 160.503, 224.054 150.586 C 226.560 143.888, 233.721 135.688, 239.732 132.634 L 244.186 130.370 240.607 127.228 C 235.083 122.378, 228.806 120.993, 212.568 121.044 C 203.375 121.073, 197.184 121.557, 194.703 122.442 M 279.196 122.897 C 276.279 123.905, 272.553 126.013, 270.915 127.581 L 267.938 130.433 272.330 132.665 C 278.285 135.691, 285.450 143.914, 287.946 150.586 C 291.773 160.814, 290.399 172.880, 284.379 181.902 L 282.108 185.305 286.004 187.232 C 288.146 188.292, 291.893 190.914, 294.331 193.060 L 298.762 196.961 302.489 193.445 C 304.539 191.512, 308.080 188.991, 310.358 187.842 C 312.636 186.694, 314.636 185.636, 314.801 185.493 C 314.967 185.349, 313.768 183.126, 312.136 180.554 C 301.795 164.247, 308.377 140.464, 325.490 132.303 C 327.421 131.383, 329 130.253, 329 129.793 C 329 128.507, 320.005 123.096, 316.035 121.993 C 314.091 121.453, 306.200 121.023, 298.500 121.038 C 287.578 121.059, 283.334 121.468, 279.196 122.897 M 43.500 136.399 C 34.296 139.310, 29.557 143.354, 25.804 151.500 L 23.500 156.500 23.783 225.256 C 23.939 263.071, 24.450 307.171, 24.918 323.256 C 25.658 348.644, 26.036 353.239, 27.782 358.106 C 32.472 371.179, 38.309 377.545, 62.056 395.486 C 71.711 402.781, 80.780 410.138, 82.208 411.835 C 85.691 415.975, 87.709 421.758, 89.300 432.158 L 90.624 440.817 85.062 441.493 C 73.865 442.856, 67.300 447.875, 66.355 455.797 C 65.640 461.793, 72.503 501.853, 74.770 504.915 C 78.029 509.317, 82.890 512, 87.604 512 C 92.535 512, 235.894 489.461, 240.585 487.949 C 243.805 486.910, 247.958 483.052, 249.878 479.316 C 251.593 475.977, 251.260 470.784, 248.020 450.319 C 244.610 428.777, 242.964 424.472, 236.820 421.019 C 233.279 419.029, 231.886 418.816, 225.982 419.365 L 219.208 419.995 218.596 412.247 C 218.260 407.986, 217.525 396.850, 216.963 387.500 C 215.728 366.966, 214.680 359.291, 212.082 351.738 C 209.876 345.327, 204.586 336.848, 200.317 332.883 C 196.775 329.592, 125.338 276.864, 118.276 272.328 C 111.728 268.121, 102.189 265.581, 95.790 266.339 C 91.452 266.852, 90.972 266.702, 90.554 264.702 C 90.301 263.491, 87.590 238.200, 84.529 208.500 C 79.427 158.985, 78.754 154.068, 76.433 149.301 C 71.020 138.180, 56.211 132.379, 43.500 136.399 M 450.492 136.797 C 443.373 139.259, 438.438 143.402, 435.541 149.350 C 433.248 154.057, 432.555 159.143, 427.480 208.500 C 424.427 238.200, 421.716 263.491, 421.457 264.702 C 421.029 266.701, 420.545 266.852, 416.210 266.339 C 410.189 265.625, 399.901 268.162, 394.500 271.692 C 387.894 276.009, 314.719 330.072, 311.729 332.845 C 307.371 336.886, 302.201 344.981, 300.033 351.159 C 297.417 358.611, 296.275 366.922, 295.037 387.500 C 294.475 396.850, 293.740 407.986, 293.404 412.247 L 292.792 419.995 286.018 419.365 C 280.167 418.821, 278.715 419.035, 275.372 420.935 C 268.710 424.721, 268 426.492, 264.370 448.383 C 260.789 469.983, 260.360 475.886, 262.122 479.316 C 264.043 483.054, 268.196 486.911, 271.415 487.945 C 276.044 489.432, 419.687 512, 424.522 512 C 429.103 512, 434.010 509.265, 437.230 504.915 C 439.497 501.853, 446.360 461.793, 445.645 455.797 C 444.700 447.875, 438.135 442.856, 426.938 441.493 L 421.376 440.817 422.700 432.158 C 424.203 422.330, 426.191 416.298, 429.176 412.503 C 430.307 411.066, 439.392 403.656, 449.366 396.035 C 473.947 377.255, 478.842 371.946, 483.980 358.500 C 486.084 352.995, 486.341 350.160, 487.098 324.108 C 487.551 308.492, 488.052 264.392, 488.211 226.108 L 488.500 156.500 486.111 151.212 C 480.267 138.281, 464.571 131.929, 450.492 136.797 M 164.047 144.305 C 156.944 146.569, 151 155.384, 151 163.654 C 151 167.919, 154.940 174.939, 159.265 178.379 C 167.283 184.757, 181.018 182.463, 186.759 173.788 C 190.399 168.287, 191 159.881, 188.152 154.297 C 183.456 145.093, 173.944 141.150, 164.047 144.305 M 249 144.594 C 236.656 149.941, 232.696 164.246, 240.650 174.759 C 248.162 184.688, 264.820 184.326, 271.723 174.084 C 277.555 165.429, 276.641 155.739, 269.339 148.803 C 263.542 143.297, 255.729 141.680, 249 144.594 M 334.007 144.593 C 322.671 149.509, 318.459 163.539, 325.241 173.788 C 330.982 182.463, 344.717 184.757, 352.735 178.379 C 357.060 174.939, 361 167.919, 361 163.654 C 361 149.394, 346.519 139.167, 334.007 144.593 M 46.327 150.696 C 42.998 151.344, 39.291 155.647, 38.498 159.781 C 37.598 164.476, 37.771 207.388, 39.006 285.598 C 39.908 342.684, 40.105 347.129, 42.009 353.293 C 44.816 362.381, 50.423 368.217, 72.075 384.584 C 81.787 391.926, 91.210 399.614, 93.014 401.669 C 98.138 407.504, 101.755 416.382, 103.531 427.481 C 104.409 432.970, 105.291 437.625, 105.491 437.824 C 105.901 438.235, 203.277 422.966, 203.906 422.392 C 204.592 421.766, 200.903 367.817, 199.810 362.500 C 198.284 355.074, 193.319 346.446, 188.088 342.129 C 176.252 332.363, 110.524 284.677, 106.360 282.835 C 90.003 275.600, 72.612 291.812, 79.903 307.500 C 82.509 313.108, 86.496 316.571, 111.500 334.945 C 123.600 343.836, 134.287 352.036, 135.250 353.166 C 139.035 357.612, 135.641 365, 129.813 365 C 126.965 365, 83.053 333.254, 74.698 325.155 C 72.057 322.595, 68.457 317.584, 66.698 314.021 C 60.652 301.772, 62.879 287.781, 72.584 277.038 L 76.398 272.817 70.557 216.158 C 67.344 184.996, 64.121 158.021, 63.394 156.214 C 61.383 151.215, 54.721 149.061, 46.327 150.696 M 453.213 151.445 C 451.158 152.376, 449.430 154.166, 448.606 156.217 C 447.880 158.023, 444.664 185.003, 441.458 216.174 L 435.629 272.847 439.430 277.054 C 445.615 283.900, 448.486 291.174, 448.493 300.021 C 448.499 306.472, 448.045 308.464, 445.302 314.021 C 440.989 322.759, 436.490 326.852, 408.615 347.396 C 383.191 366.134, 381.285 367.061, 377.174 362.686 C 374.549 359.891, 374.374 355.955, 376.750 353.171 C 377.712 352.044, 388.400 343.848, 400.500 334.958 C 425.462 316.619, 429.484 313.124, 432.097 307.500 C 438.932 292.792, 424.180 277.330, 407.712 281.941 C 404.691 282.786, 391.447 291.960, 363.586 312.505 C 341.691 328.651, 322.743 342.832, 321.481 344.018 C 318.196 347.104, 313.392 356.655, 312.184 362.500 C 311.082 367.835, 307.393 421.756, 308.087 422.377 C 308.722 422.945, 406.112 438.222, 406.516 437.817 C 406.712 437.622, 407.591 432.970, 408.469 427.481 C 410.175 416.819, 413.750 407.783, 418.469 402.203 C 420.002 400.390, 429.534 392.596, 439.651 384.885 C 464.244 366.139, 466.835 363.417, 470.109 352.896 C 471.861 347.267, 472.112 341.417, 472.996 285.615 C 474.584 185.326, 474.512 162.210, 472.596 157.480 C 471.700 155.269, 470.019 152.869, 468.861 152.145 C 465.599 150.108, 457.012 149.724, 453.213 151.445 M 151.183 198.850 C 145.688 200.801, 139.780 205.636, 137.555 210 C 136.854 211.375, 136.009 214.579, 135.677 217.120 C 135.147 221.181, 135.489 222.429, 138.505 227.438 C 150.595 247.515, 173.884 268.199, 196.500 278.943 C 201.196 281.175, 205.276 283, 205.567 283 C 205.858 283, 205.961 267.063, 205.798 247.584 L 205.500 212.169 202.500 207.938 C 200.769 205.497, 197.173 202.395, 194 200.604 C 188.559 197.534, 188.327 197.497, 172.500 197.231 C 158.900 197.003, 155.702 197.246, 151.183 198.850 M 237 198.537 C 231.319 200.301, 225.518 205.064, 222.971 210.057 C 221.115 213.695, 221 216.075, 221 250.893 C 221 285.234, 221.125 287.903, 222.750 288.402 C 229.190 290.376, 244.198 292, 256 292 C 267.802 292, 282.810 290.376, 289.250 288.402 C 290.875 287.903, 291 285.234, 291 250.893 C 291 216.075, 290.885 213.695, 289.029 210.057 C 286.405 204.914, 280.616 200.276, 274.568 198.471 C 268.037 196.523, 243.348 196.566, 237 198.537 M 324.332 197.959 C 318.958 199.239, 312.087 203.911, 309.228 208.230 L 306.500 212.350 306.214 247.675 C 306.056 267.104, 306.195 283, 306.523 283 C 308.509 283, 325.283 274.057, 333.170 268.793 C 348.640 258.468, 368.581 237.583, 375.021 224.959 C 376.679 221.709, 376.828 220.364, 376.007 216.039 C 374.774 209.537, 373.980 208.118, 369.112 203.720 C 363.216 198.394, 357.227 196.980, 341.068 197.102 C 333.606 197.159, 326.074 197.544, 324.332 197.959 M 153.091 445.570 C 113.816 451.849, 81.482 457.184, 81.239 457.427 C 80.556 458.110, 86.755 496.169, 87.682 496.980 C 88.132 497.374, 101.775 495.556, 118 492.941 C 134.225 490.325, 166.400 485.209, 189.500 481.571 C 212.600 477.933, 232.512 474.733, 233.750 474.460 C 236.652 473.818, 236.611 472.155, 233.170 451 L 230.485 434.500 227.493 434.328 C 225.847 434.233, 192.366 439.292, 153.091 445.570 M 281.527 435.250 C 280.039 439.784, 275.400 473.886, 276.250 474.048 C 291.253 476.913, 423.757 497.433, 424.299 496.976 C 425.241 496.182, 431.497 458.163, 430.801 457.467 C 430.277 456.943, 286.566 434.022, 283.719 434.008 C 282.739 434.004, 281.753 434.563, 281.527 435.250 M 212 449.709 C 208.811 450.882, 207 453.398, 207 456.655 C 207 465.657, 219.468 466.616, 221.559 457.775 C 222.076 455.591, 221.604 454.450, 219.179 452.025 C 216.191 449.037, 214.933 448.631, 212 449.709 M 292.923 451.923 C 290.402 454.444, 289.921 455.579, 290.441 457.775 C 292.532 466.616, 305 465.657, 305 456.655 C 305 452.915, 302.914 450.509, 298.775 449.476 C 296.558 448.922, 295.468 449.378, 292.923 451.923" stroke="none" fill="#040404" fill-rule="evenodd"/></svg>